<svg width="69" height="40" viewBox="0 0 69 40" fill="none" xmlns="http://www.w3.org/2000/svg">
<path d="M0.597656 30V0.703125H18.6836V5.23438H5.75391V12.9492H17.9023V17.4609H5.75391V30H0.597656ZM24.1531 5.29297C23.476 5.29297 22.9031 5.05859 22.4344 4.58984C21.9786 4.10807 21.7508 3.52865 21.7508 2.85156C21.7508 2.1875 21.9786 1.62109 22.4344 1.15234C22.9031 0.670573 23.476 0.429688 24.1531 0.429688C24.8432 0.429688 25.4227 0.670573 25.8914 1.15234C26.3602 1.62109 26.5945 2.1875 26.5945 2.85156C26.5945 3.52865 26.3602 4.10807 25.8914 4.58984C25.4227 5.05859 24.8432 5.29297 24.1531 5.29297ZM26.5555 30H21.7508V10.4688H26.5555V30ZM35.8336 39.7656H31.0289V10.4688H35.2672L35.5016 13.2031C36.3609 12.2266 37.3961 11.4648 38.607 10.918C39.818 10.3581 41.1396 10.0781 42.5719 10.0781C44.3948 10.0781 46.0224 10.5208 47.4547 11.4062C48.9 12.2917 50.0328 13.5026 50.8531 15.0391C51.6865 16.5625 52.1031 18.2943 52.1031 20.2344C52.1031 22.1745 51.6865 23.9128 50.8531 25.4492C50.0328 26.9727 48.9 28.1771 47.4547 29.0625C46.0224 29.9479 44.3948 30.3906 42.5719 30.3906C41.2307 30.3906 39.9872 30.1497 38.8414 29.668C37.6956 29.1862 36.693 28.5091 35.8336 27.6367V39.7656ZM41.5367 26.0547C42.6305 26.0547 43.6005 25.8073 44.4469 25.3125C45.3062 24.8047 45.9703 24.1146 46.4391 23.2422C46.9208 22.3568 47.1617 21.3477 47.1617 20.2148C47.1617 19.082 46.9208 18.0794 46.4391 17.207C45.9573 16.3216 45.2932 15.6315 44.4469 15.1367C43.6005 14.6289 42.6305 14.375 41.5367 14.375C40.5081 14.375 39.5771 14.6094 38.7437 15.0781C37.9104 15.5339 37.2398 16.1654 36.732 16.9727C36.2242 17.7669 35.9247 18.6784 35.8336 19.707V20.7812C35.9247 21.8099 36.2177 22.7214 36.7125 23.5156C37.2203 24.3099 37.8909 24.9349 38.7242 25.3906C39.5576 25.8333 40.4951 26.0547 41.5367 26.0547ZM53.8227 28.3203L54.9164 24.1406C55.3461 24.5703 55.8799 24.9609 56.518 25.3125C57.156 25.6641 57.8331 25.944 58.5492 26.1523C59.2784 26.3477 59.988 26.4453 60.6781 26.4453C61.6026 26.4453 62.3448 26.2565 62.9047 25.8789C63.4646 25.4883 63.7445 24.9805 63.7445 24.3555C63.7445 23.8607 63.5753 23.4505 63.2367 23.125C62.8982 22.7865 62.4555 22.4935 61.9086 22.2461C61.3617 21.9857 60.7628 21.7318 60.1117 21.4844C59.2523 21.1719 58.3799 20.8008 57.4945 20.3711C56.6091 19.9284 55.8669 19.349 55.268 18.6328C54.682 17.9036 54.3891 16.9401 54.3891 15.7422C54.3891 14.5833 54.682 13.5807 55.268 12.7344C55.8669 11.888 56.7003 11.237 57.768 10.7812C58.8357 10.3125 60.0792 10.0781 61.4984 10.0781C63.738 10.0781 65.9711 10.638 68.1977 11.7578L66.8109 15.7031C66.3943 15.3906 65.8865 15.1042 65.2875 14.8438C64.6885 14.5833 64.0766 14.375 63.4516 14.2188C62.8266 14.0625 62.2602 13.9844 61.7523 13.9844C61.0102 13.9844 60.4177 14.1471 59.975 14.4727C59.5323 14.7982 59.3109 15.2279 59.3109 15.7617C59.3109 16.1263 59.4346 16.4583 59.682 16.7578C59.9294 17.0443 60.3135 17.3242 60.8344 17.5977C61.3552 17.8711 62.0258 18.1771 62.8461 18.5156C63.7315 18.8542 64.6169 19.2513 65.5023 19.707C66.4008 20.1497 67.1495 20.7422 67.7484 21.4844C68.3604 22.2135 68.6664 23.1836 68.6664 24.3945C68.6664 25.5924 68.3409 26.6406 67.6898 27.5391C67.0518 28.4375 66.1534 29.1406 64.9945 29.6484C63.8487 30.1432 62.5076 30.3906 60.9711 30.3906C58.419 30.3906 56.0362 29.7005 53.8227 28.3203Z" fill="black"/>
</svg>
